<svg height='300px' width='300px'  fill="#000000" xmlns="http://www.w3.org/2000/svg" viewBox="0 0 100 100" x="0px" y="0px"><title>FILE</title><g data-name="ICON 11"><path d="M96.63,65c-.85-1.5-2.86-1.66-5-1.83-3-.24-5.13-.57-5.8-2.59-.56-1.67.59-5.7,1.81-10,3-10.42,7-24.68-3.17-32.54-12.14-9.33-24-2-26.72-.06L45.06,9.33a5.12,5.12,0,0,0-5.9,8.36c-.85,2.25-4.25,9.64-12.76,10.59a10.14,10.14,0,0,0-4,1.43l-.07,0a25.61,25.61,0,0,0-7.87,8.16c-5.63,8.58-9.86,22-7.6,31.85A3.94,3.94,0,0,0,4.75,77L25.21,90.87a3.9,3.9,0,0,0,2.21.69,4.53,4.53,0,0,0,.74-.07,3.89,3.89,0,0,0,3-5.18C41.14,84.8,52.06,76,58,67.56a25.66,25.66,0,0,0,4.7-10.31.28.28,0,0,0,0-.09,10.34,10.34,0,0,0-.15-4.29c-2.26-8.35,3.34-14.15,5.16-15.76a5,5,0,0,0,2.72.8,5.12,5.12,0,0,0,2.89-9.36l-2.85-1.94A9.57,9.57,0,0,1,75.9,30.1c1.59,2.36,1.54,5.68-.14,9.88l-.48,1.21c-5.86,14.64-8.8,22-4.61,30.37,1.83,3.66,5.8,5.77,10.89,5.77,6.22,0,12.17-3.22,14.48-7.83C97.05,67.48,97.24,66,96.63,65Zm-67,19.39L9.19,70.43A.91.91,0,0,0,9,70.34,29.53,29.53,0,0,1,8.9,57L42.23,79.69c-4.08,2.58-8.4,4.4-12.44,4.78A1.49,1.49,0,0,0,29.65,84.35ZM29,88.7a1.94,1.94,0,0,1-2.7.52L5.88,75.3a2,2,0,0,1-.82-1.25,1.91,1.91,0,0,1,.3-1.45,2,2,0,0,1,2.71-.52L28.52,86a2,2,0,0,1,.82,1.25A1.92,1.92,0,0,1,29,88.7ZM56.34,66.41A51.87,51.87,0,0,1,44,78.49L9.36,54.9A52.15,52.15,0,0,1,16.08,39a24.87,24.87,0,0,1,6.75-7.24l37.78,25.7A25.07,25.07,0,0,1,56.34,66.41Zm4.27-13a7.11,7.11,0,0,1,.23,1.83l-36-24.5a7.2,7.2,0,0,1,1.78-.46c9-1,13-8.39,14.22-11.4L66,36C63.66,38.24,58.23,44.62,60.61,53.39ZM73.5,32.21a3.12,3.12,0,0,1-4.83,3.16L40.42,16.15A3.12,3.12,0,0,1,41.6,10.5a2.88,2.88,0,0,1,.59-.06,3.07,3.07,0,0,1,1.75.55L72.19,30.21A3.12,3.12,0,0,1,73.5,32.21Zm20.75,36.4c-2,4-7.2,6.72-12.69,6.72-4.3,0-7.62-1.7-9.1-4.67-3.79-7.58-1.14-14.21,4.67-28.72l.49-1.22c1.94-4.85,1.92-8.81-.07-11.75-3-4.46-9.49-4.95-11-5l-7.06-4.81c3.26-2.2,13.25-7.61,23.75.46,9.14,7,5.28,20.54,2.47,30.4-1.42,5-2.54,8.9-1.79,11.15,1.15,3.43,4.84,3.73,7.54,4,1.44.12,3.08.25,3.41.83C95,66.14,95.16,66.79,94.25,68.61Z"></path></g></svg>