<svg height='300px' width='300px'  fill="#000000" xmlns="http://www.w3.org/2000/svg" xmlns:xlink="http://www.w3.org/1999/xlink" version="1.1" x="0px" y="0px" viewBox="0 0 595.28 595.28" enable-background="new 0 0 595.28 595.28" xml:space="preserve"><g><path d="M321.884,311.846l1.232,1.232l1.355,1.235l1.356,0.984l1.603,0.863l3.328,1.108l1.727,0.372l1.724,0.124l1.727-0.124   l1.724-0.248l1.727-0.492l1.603-0.616l1.601-0.863l0.616-1.232l0.495-1.479l0.244-1.479v-1.48l-0.121-1.479l-0.372-1.356   l-0.616-1.356l-0.74-1.355l-2.835-0.492l-2.959-0.248l-2.095-0.124h-0.861l-2.958,0.248l-2.835,0.616l-2.835,0.739l-2.711,0.988   l-2.712,1.232l0.74,1.724l0.86,1.479L321.884,311.846z M327.431,308.887l0.493-0.492l0.616-0.369l0.74-0.124l2.343,0.492   l2.467,0.247h0.121h2.343l2.464-0.124h0.864l0.74,0.369l0.492,0.619l0.248,1.6l-0.369,0.739l-0.616,0.496l-0.864,0.244   l-2.835,0.248h-2.467h-0.369l-2.835-0.372l-2.711-0.492l-0.616-0.492l-0.372-0.495l-0.245-0.737L327.431,308.887z"></path><path d="M520.46,425.864c-0.329-1.972-0.535-3.985-0.616-6.039c-0.166-2.054-0.248-4.109-0.248-6.166   c0-1.97,0.082-3.985,0.248-6.039c0.081-2.053,0.287-4.067,0.616-6.039c0.245-0.981,0.368-1.979,0.368-2.958   c-0.082-1.063-0.288-2.06-0.616-2.959c-0.326-0.896-0.826-1.77-1.479-2.587c-0.654-0.736-1.401-1.4-2.219-1.972   c-2.875-2.054-5.709-4.151-8.503-6.287c-2.795-2.219-5.507-4.48-8.137-6.781c-2.711-2.298-5.341-4.683-7.889-7.147   c-2.546-2.467-5.012-4.972-7.395-7.521c-7.887-9.282-16.068-18.326-24.529-27.117c-8.462-8.707-17.218-17.134-26.254-25.27   c-9.038-8.214-18.369-16.108-27.98-23.666c-9.53-7.556-19.314-14.791-29.336-21.694c-2.208-3.518-4.82-6.749-7.766-9.614   c-3.028-2.862-6.424-5.307-10.109-7.271c-3.682-1.882-7.617-3.292-11.709-4.191c-4.009-0.901-8.154-1.275-12.326-1.111   c-5.256,0.658-10.523,1.604-15.779,2.835c-5.255,1.15-10.439,2.589-15.529,4.314c-5.01,1.644-9.989,3.577-14.916,5.794   c-4.926,2.135-9.7,4.52-14.3,7.147c0.412-2.948,0.493-5.923,0.248-8.874c-0.246-2.951-0.824-5.884-1.725-8.75   c-0.819-2.787-1.979-5.514-3.451-8.137c-1.476-2.54-3.211-4.937-5.178-7.147c-0.816-0.733-1.693-1.321-2.588-1.727   c-0.979-0.406-2.025-0.616-3.083-0.616c-1.058,0-2.104,0.21-3.083,0.616c-0.976,0.406-1.854,0.994-2.587,1.727   c-4.335,3.518-8.191,7.619-11.462,12.201c-3.191,4.583-5.802,9.556-7.766,14.792c-1.882,5.319-3.043,10.83-3.452,16.392   c-0.493,5.566-0.201,11.159,0.861,16.643l3.698-3.575c-0.735-4.992-0.819-10.006-0.248-14.916c0.575-4.991,1.775-9.84,3.575-14.42   c1.881-4.665,4.285-9.057,7.15-13.068c2.946-4.089,6.385-7.736,10.229-10.846l0.248-0.124l0.124-0.124   c0.324-0.325,0.744-0.618,1.231-0.86c0.406-0.164,0.868-0.248,1.356-0.248s0.991,0.084,1.479,0.248   c0.488,0.16,0.907,0.412,1.232,0.736c1.805,1.969,3.375,4.158,4.686,6.534c1.31,2.295,2.342,4.731,3.08,7.273   c0.819,2.54,1.315,5.142,1.479,7.766c0.246,2.702,0.164,5.389-0.247,8.01l-1.108,8.258l7.274-4.067   c4.515-2.628,9.166-4.973,13.928-7.026c4.763-2.135,9.618-4.027,14.545-5.671c5.008-1.64,10.029-3.04,15.037-4.19   c5.092-1.148,10.234-2.053,15.408-2.711c3.764-0.164,7.536,0.168,11.217,0.987c3.683,0.817,7.246,2.144,10.601,3.943   c3.273,1.718,6.338,3.915,9.122,6.534c2.701,2.535,5.063,5.477,7.026,8.75l0.493,0.739l0.739,0.492   c9.941,6.819,19.643,14.015,29.092,21.574c9.528,7.474,18.779,15.286,27.733,23.418c8.954,8.05,17.669,16.438,26.13,25.145   c8.38,8.709,16.479,17.671,24.285,26.873h0.121v0.121c2.467,2.63,5.015,5.178,7.645,7.642c2.546,2.549,5.175,5.015,7.887,7.397   c2.793,2.382,5.588,4.683,8.382,6.902c2.877,2.135,5.794,4.272,8.753,6.41h0.124c0.406,0.326,0.823,0.7,1.232,1.108   c0.327,0.49,0.576,0.989,0.74,1.479c0.245,0.49,0.368,1.032,0.368,1.604c0,0.571-0.042,1.154-0.124,1.724l-0.121,0.248v0.248   l-0.372,2.956c-0.574-0.162-1.15-0.326-1.724-0.492c-0.577-0.164-1.111-0.329-1.604-0.493c-0.576-0.247-1.111-0.492-1.603-0.739   c-0.492-0.248-1.026-0.493-1.604-0.74c-0.244-0.164-0.534-0.33-0.86-0.492c-0.248-0.166-0.537-0.248-0.863-0.248   c-0.33-0.082-0.7-0.124-1.111-0.124c-0.327,0-0.658,0-0.984,0c-0.33,0.082-0.618,0.206-0.863,0.372   c-0.327,0.082-0.658,0.246-0.985,0.492c-0.248,0.164-0.495,0.37-0.739,0.616c-0.248,0.246-0.454,0.495-0.619,0.74   c-0.493,0.903-0.944,1.808-1.356,2.711c-0.408,0.903-0.778,1.85-1.107,2.835c-0.248,0.985-0.453,1.974-0.616,2.958   c-0.082,0.985-0.124,1.974-0.124,2.959c0.082,0.408,0.166,0.779,0.248,1.108c0.163,0.41,0.328,0.782,0.493,1.108   c0.245,0.33,0.494,0.658,0.739,0.988c0.246,0.245,0.534,0.494,0.864,0.739c0.326,0.246,0.658,0.452,0.984,0.616   c0.412,0.164,0.782,0.288,1.111,0.372c0.408,0.081,0.822,0.121,1.232,0.121c0.327,0,0.7-0.04,1.108-0.121   c0.821,0,1.603-0.042,2.342-0.124c0.822-0.084,1.644-0.167,2.464-0.248c0.74-0.082,1.521-0.206,2.343-0.368   c0.822-0.084,1.604-0.206,2.343-0.372c0,0.658,0.04,1.355,0.124,2.095c0.081,0.658,0.163,1.356,0.244,2.095   c0,0.658,0.042,1.356,0.124,2.096c0.083,0.657,0.206,1.355,0.372,2.095v0.248v0.124c0.731,2.847,0.856,5.818,0.369,8.75   c-0.406,2.932-1.37,5.735-2.835,8.258c-1.464,2.525-3.391,4.785-5.67,6.658c-2.361,1.789-4.997,3.129-7.766,3.943l-2.464,0.74   l-0.124,0.864c-3.451-2.054-6.944-4.027-10.477-5.918c-3.533-1.806-7.11-3.533-10.725-5.175c-3.696-1.562-7.397-3.043-11.094-4.438   c-3.777-1.313-7.602-2.506-11.461-3.575l-4.07,5.302c4.11,0.902,8.179,1.972,12.204,3.204c4.025,1.232,7.972,2.587,11.833,4.067   c3.943,1.562,7.808,3.246,11.585,5.055c3.863,1.806,7.603,3.739,11.217,5.794c-0.654,2.292-1.604,4.444-2.835,6.407   c-1.144,2.047-2.552,3.953-4.191,5.67c-1.718,1.721-3.581,3.211-5.546,4.438c-2.044,1.228-4.2,2.221-6.407,2.959   c-2.293,0.654-4.652,1.068-7.026,1.232c-2.375,0.164-4.734-0.002-7.026-0.492c-2.293-0.411-4.57-1.115-6.782-2.095   c-2.126-1.065-4.115-2.35-5.915-3.823l-0.372-0.248l-0.368-0.245c-9.342-4.836-19.134-8.719-29.213-11.589   c-10.163-2.947-20.573-4.808-31.063-5.546c-10.489-0.819-21.023-0.53-31.432,0.863c-10.406,1.312-20.694,3.707-30.692,7.15   c-9.31,2.286-18.917,3.076-28.473,2.343c-9.473-0.653-18.831-2.816-27.733-6.41c-8.901-3.675-17.181-8.667-24.529-14.792   c-7.27-6.125-13.592-13.404-18.736-21.571l-4.81,0.124c5.228,8.82,11.842,16.722,19.599,23.418   c7.678,6.779,16.414,12.227,25.885,16.147c9.393,4.003,19.375,6.457,29.583,7.274c10.209,0.732,20.483-0.099,30.445-2.467   c9.671-3.359,19.668-5.757,29.832-7.15c10.161-1.31,20.447-1.598,30.692-0.861c10.242,0.819,20.365,2.636,30.2,5.423   c9.916,2.785,19.458,6.586,28.473,11.341c2.129,1.718,4.405,3.166,6.778,4.312c2.456,1.065,5.022,1.893,7.642,2.467   c2.538,0.49,5.188,0.698,7.89,0.616c2.619-0.164,5.268-0.618,7.89-1.356c2.538-0.737,4.979-1.813,7.271-3.207   c2.292-1.31,4.405-2.923,6.286-4.807c1.966-1.882,3.663-3.951,5.055-6.163c1.392-2.292,2.508-4.733,3.328-7.271   c0.082-0.33,0.166-0.658,0.248-0.987c0.164-0.33,0.286-0.658,0.368-0.988c0.082-0.326,0.166-0.655,0.248-0.984   c0-0.33,0.04-0.658,0.124-0.988c3.337-0.976,6.475-2.609,9.242-4.807c2.689-2.116,4.949-4.752,6.658-7.766   c1.792-3.011,2.963-6.317,3.451-9.738C521.44,432.798,521.272,429.284,520.46,425.864z"></path><path d="M294.644,406.018c11.643-4.835,22.746-10.781,33.159-17.748c10.41-6.97,20.111-14.936,28.965-23.79   c1.142-1.142,2.1-2.475,2.835-3.943c0.654-1.389,1.11-2.93,1.356-4.563c0.163-1.55,0.08-3.133-0.248-4.683   c-0.243-1.551-0.786-3.051-1.6-4.438c-1.067-1.804-2.306-3.537-3.699-5.175c-1.394-1.559-2.921-2.963-4.559-4.19   c-1.642-1.312-3.417-2.427-5.303-3.331c-1.885-0.9-3.826-1.644-5.794-2.219c-1.802-0.49-3.619-0.779-5.423-0.86   c-1.802-0.082-3.621,0-5.423,0.245c-1.801,0.247-3.579,0.702-5.299,1.355c-1.723,0.575-3.374,1.36-4.931,2.343   c-4.916,2.867-10.125,5.143-15.532,6.778c-5.406,1.721-10.989,2.795-16.64,3.207c-5.654,0.409-11.36,0.203-17.011-0.616   c-5.57-0.819-11.029-2.267-16.271-4.314c-5.325-2.047-10.368-4.694-15.037-7.89c-4.75-3.193-9.092-6.875-12.944-10.969   c-3.85-4.179-7.24-8.726-10.106-13.56c-2.867-4.913-5.182-10.125-6.902-15.532c-0.411-1.638-0.7-3.331-0.864-5.051   c-0.082-1.723,0-3.458,0.248-5.178c0.245-1.72,0.7-3.374,1.355-4.931c0.572-1.638,1.316-3.208,2.217-4.684   c0.903-1.393,1.977-2.715,3.207-3.943c1.23-1.231,2.549-2.344,3.943-3.33c1.475-0.9,3.005-1.684,4.562-2.34   c1.638-0.656,3.332-1.111,5.052-1.356c0.084-0.411,0.166-0.782,0.247-1.111c0.082-0.411,0.206-0.78,0.372-1.108   c0.081-0.33,0.205-0.7,0.369-1.111c0.082-0.329,0.206-0.698,0.371-1.108c-2.131,0.246-4.2,0.7-6.165,1.355   c-1.966,0.574-3.868,1.4-5.67,2.464c-1.884,1.067-3.579,2.347-5.052,3.823c-1.558,1.394-2.963,2.963-4.191,4.683   c-1.149,1.721-2.14,3.581-2.959,5.546c-0.738,1.966-1.316,3.993-1.727,6.042c-0.327,2.047-0.408,4.155-0.245,6.287   c0.082,2.047,0.412,4.115,0.984,6.162v0.124c1.803,5.733,4.244,11.233,7.274,16.392c3.029,5.161,6.627,9.958,10.725,14.3   c4.013,4.339,8.562,8.228,13.557,11.585c4.917,3.359,10.209,6.13,15.779,8.258c5.569,2.212,11.357,3.743,17.256,4.562   c5.979,0.9,11.976,1.148,17.872,0.74c5.98-0.493,11.895-1.649,17.627-3.451c5.652-1.722,11.153-4.121,16.396-7.15h0.121   c1.312-0.819,2.677-1.521,4.07-2.095c1.475-0.492,2.96-0.864,4.436-1.108c1.558-0.167,3.127-0.206,4.687-0.124   c1.556,0.082,3.084,0.328,4.559,0.74c1.722,0.408,3.414,1.028,5.055,1.848c1.638,0.82,3.208,1.768,4.683,2.835   c1.394,1.148,2.715,2.426,3.943,3.819c1.231,1.312,2.303,2.8,3.207,4.438c0.57,0.978,0.944,2.02,1.108,3.083   c0.245,1.142,0.288,2.31,0.124,3.452c-0.164,1.142-0.496,2.267-0.987,3.327c-0.488,0.978-1.154,1.896-1.972,2.711   c-5.171,5.172-10.605,10.029-16.268,14.544c-5.749,4.516-11.717,8.673-17.875,12.449c-6.238,3.86-12.703,7.359-19.351,10.477   c-6.568,3.039-13.319,5.714-20.215,8.013c-0.082-3.12-0.29-6.207-0.616-9.245c-0.411-3.12-0.987-6.207-1.727-9.245   c-0.655-3.038-1.521-5.999-2.587-8.874c-1.069-2.958-2.303-5.836-3.699-8.627l-2.464,4.436c1.148,2.546,2.138,5.181,2.956,7.89   c0.905,2.709,1.645,5.424,2.219,8.134c0.576,2.793,1.029,5.591,1.356,8.382c0.247,2.793,0.371,5.63,0.371,8.506   c-4.436,1.313-8.876,2.467-13.313,3.451c-4.519,1.069-9.042,1.932-13.56,2.588c-4.6,0.74-9.206,1.275-13.805,1.604   c-4.599,0.33-9.205,0.492-13.805,0.492c-9.675,0-19.375-0.906-28.968-2.711c-9.509-1.885-18.837-4.649-27.856-8.258   c-9.018-3.689-17.646-8.188-25.761-13.437c-8.198-5.329-15.834-11.395-22.802-18.119c5.741-1.066,11.349-2.592,16.763-4.56   c5.495-2.052,10.775-4.608,15.777-7.642c5.004-2.953,9.706-6.376,14.052-10.232c4.346-3.854,8.348-8.103,11.957-12.694h-5.423   c-3.527,4.264-7.446,8.183-11.712,11.709c-4.346,3.445-8.967,6.539-13.805,9.246c-4.838,2.705-9.911,4.933-15.16,6.655   c-5.25,1.804-10.611,3.083-16.024,3.822c-9.813-10.141-18.153-21.592-24.777-34.022c-6.624-12.509-11.476-25.87-14.42-39.689   c-2.945-13.82-3.898-27.969-2.835-42.034c0.981-14.064,3.927-27.921,8.751-41.169c4.758,4.019,9.831,7.648,15.163,10.849   c5.331,3.198,10.94,5.961,16.764,8.258c5.741,2.296,11.68,4.069,17.749,5.299c6.151,1.314,12.379,2.056,18.613,2.219l-2.591-4.191   c-5.825-0.41-11.635-1.276-17.379-2.588c-5.744-1.313-11.388-3.127-16.887-5.422c-5.415-2.218-10.649-4.896-15.653-8.014   c-5.007-3.118-9.744-6.662-14.176-10.601c4.179-10.402,9.472-20.286,15.779-29.46c6.388-9.255,13.748-17.774,21.939-25.39   c8.191-7.62,17.206-14.277,26.873-19.847c9.746-5.651,20.042-10.159,30.692-13.436c-1.719,8.587-2.176,17.343-1.356,26.009   c0.736,8.751,2.686,17.338,5.792,25.517c3.108,8.176,7.341,15.894,12.572,22.926c5.235,6.95,11.458,13.174,18.491,18.488v-5.299   c-6.46-5.234-12.143-11.333-16.888-18.119c-4.742-6.788-8.518-14.214-11.217-22.065c-2.699-7.769-4.317-15.9-4.807-24.158   c-0.49-8.258,0.174-16.556,1.972-24.653c5.666-1.558,11.387-2.835,17.135-3.82c5.827-0.903,11.715-1.439,17.624-1.603   c5.831-0.246,11.716-0.164,17.627,0.248c5.83,0.492,11.674,1.316,17.503,2.464c-1.394,2.215-2.548,4.566-3.451,7.026   c-0.984,2.463-1.766,4.977-2.343,7.519c-0.49,2.626-0.82,5.222-0.984,7.766c-0.082,2.625,0.042,5.264,0.368,7.89l3.823-3.823   c-0.082-2.214,0-4.439,0.248-6.654c0.244-2.215,0.658-4.44,1.232-6.655c0.574-2.135,1.315-4.238,2.219-6.286   c0.9-2.052,1.974-4.03,3.204-5.918c2.793,0.658,5.631,1.397,8.506,2.219c2.793,0.822,5.588,1.725,8.382,2.711   c2.711,0.984,5.423,2.054,8.134,3.204c2.712,1.151,5.383,2.343,8.014,3.575c-3.117,2.624-6.006,5.555-8.629,8.753   c-2.705,3.197-5.059,6.581-7.026,10.105c-1.967,3.609-3.619,7.406-4.93,11.341c-1.312,3.853-2.303,7.858-2.959,11.957l4.686-2.712   c0.738-3.692,1.81-7.279,3.203-10.725c1.313-3.445,2.964-6.785,4.931-9.985c1.967-3.197,4.195-6.209,6.658-8.998   c2.459-2.787,5.181-5.345,8.134-7.642c5.171,2.709,10.152,5.756,14.916,9.122c4.842,3.284,9.452,6.825,13.805,10.601   c4.431,3.857,8.591,7.976,12.448,12.325c3.941,4.271,7.604,8.799,10.97,13.56c-6.389,0.902-12.673,2.554-18.735,4.931   c-5.979,2.292-11.729,5.313-17.132,8.998c-5.325,3.686-10.206,7.986-14.547,12.821c-4.339,4.831-8.103,10.125-11.217,15.776h4.81   c3.111-5.325,6.833-10.245,11.093-14.668c4.257-4.423,9.014-8.352,14.173-11.709c5.08-3.359,10.581-6.088,16.395-8.137   c5.814-2.046,11.813-3.453,17.872-4.191c1.809,2.713,3.494,5.426,5.055,8.137c1.643,2.793,3.207,5.631,4.683,8.506   c1.398,2.875,2.714,5.793,3.946,8.75c1.232,2.957,2.382,5.96,3.451,8.998c-4.176-1.799-8.522-3.042-12.944-3.695   c-4.501-0.657-9.054-0.78-13.557-0.372s-8.934,1.362-13.189,2.835c-4.258,1.556-8.315,3.583-12.081,6.039l5.178,1.727   c3.602-2.129,7.491-3.743,11.585-4.807c4.093-1.146,8.275-1.77,12.449-1.851c4.258-0.163,8.48,0.252,12.573,1.235   c4.095,0.898,8.067,2.348,11.833,4.312c0.822,2.63,1.562,5.302,2.22,8.013c0.658,2.629,1.232,5.301,1.727,8.013   c0.574,2.709,1.027,5.465,1.356,8.258c0.41,2.711,0.697,5.465,0.86,8.258c0.411,0.329,0.782,0.698,1.111,1.108   c0.411,0.412,0.78,0.822,1.108,1.235c0.411,0.326,0.782,0.698,1.111,1.108c0.327,0.41,0.698,0.864,1.108,1.355   c-0.977-20.189-5.875-40.027-14.421-58.425c-8.468-18.318-20.437-34.766-35.254-48.443c-14.898-13.759-32.266-24.473-51.154-31.556   c-18.968-7.083-39.097-10.389-59.289-9.737c-20.189,0.652-40.069,5.214-58.549,13.436c-18.399,8.223-35.055,19.983-49.059,34.636   c-13.919,14.655-24.844,31.855-32.17,50.662c-7.326,18.807-10.927,38.894-10.6,59.165c0.325,20.19,4.594,40.111,12.573,58.672   c7.978,18.562,19.486,35.387,33.896,49.551c14.41,14.166,31.442,25.383,50.167,33.035c18.726,7.571,38.73,11.461,58.92,11.461   c12.543,0,25.052-1.278,37.347-3.819C271.072,414.407,283.083,410.774,294.644,406.018z"></path><path d="M250.763,256.996c1.556-4.264,3.497-8.392,5.794-12.328l3.572-1.108c-0.081-0.408-0.247-0.784-0.492-1.108   c-0.164-0.409-0.371-0.742-0.616-0.987c-0.327-0.246-0.66-0.452-0.988-0.616c-0.406-0.164-0.781-0.29-1.108-0.372   c-0.408-0.081-0.824-0.081-1.232,0c-0.409,0.082-0.784,0.25-1.111,0.496c-0.327,0.162-0.616,0.37-0.861,0.616   c-0.327,0.326-0.577,0.66-0.74,0.984c-2.624,4.427-4.772,9.137-6.41,14.052c-1.721,4.836-2.919,9.877-3.575,15.04   c-0.656,5.079-0.78,10.244-0.372,15.408c0.411,5.163,1.361,10.244,2.835,15.16l2.958-5.178c-1.063-4.425-1.684-8.924-1.848-13.434   c-0.082-4.51,0.208-9.051,0.864-13.56C248.173,265.634,249.287,261.258,250.763,256.996z"></path></g></svg>