<svg height='300px' width='300px'  fill="#000000" xmlns="http://www.w3.org/2000/svg" xmlns:xlink="http://www.w3.org/1999/xlink" version="1.0" x="0px" y="0px" viewBox="0 0 100 100" enable-background="new 0 0 100 100" xml:space="preserve"><path fill="none" stroke="#000000" stroke-linecap="round" stroke-linejoin="round" stroke-miterlimit="10" d="M40.243,32.796  c1.318-1.282,2.732-2.429,4.238-3.425c3.291-2.17,6.977-3.642,10.815-4.358c4.709-0.872,9.612-0.82,14.418,0.204  c4.92,1.037,9.788,1.044,14.392,0.183c2.125-0.396,4.131-1.209,5.895-2.374c-1.964,0.792-4.1,1.192-6.273,1.165  c-4.707-0.059-9.503-1.013-14.15-2.987c-4.537-1.933-9.357-2.942-14.171-3.008c-3.926-0.052-7.845,0.665-11.51,2.143  c-3.542,1.427-6.853,3.556-9.706,6.409l-7.442,7.442c-2.853,2.853-4.982,6.16-6.408,9.705c-1.478,3.666-2.191,7.583-2.143,11.511  c0.065,4.813,1.075,9.633,3.008,14.174c1.974,4.647,2.929,9.44,2.987,14.149c0.027,2.171-0.372,4.307-1.165,6.274  c1.165-1.768,1.978-3.77,2.374-5.898c0.858-4.6,0.854-9.468-0.183-14.388c-1.023-4.81-1.077-9.709-0.203-14.422  c0.72-3.838,2.188-7.521,4.358-10.815c0.996-1.506,2.143-2.918,3.428-4.238L40.243,32.796z"></path><rect x="29.215" y="28.231" transform="matrix(0.7071 0.7071 -0.7071 0.7071 33.4922 -13.8747)" fill="none" stroke="#000000" stroke-linecap="round" stroke-linejoin="round" stroke-miterlimit="10" width="8.561" height="10.524"></rect><polygon fill="none" stroke="#000000" stroke-linecap="round" stroke-linejoin="round" stroke-miterlimit="10" points="10,10.002   19.571,25.947 25.948,25.947 25.948,19.569 "></polygon><path fill="none" stroke="#000000" stroke-linecap="round" stroke-linejoin="round" stroke-miterlimit="10" d="M10,9.998  l63.793,63.794L10,9.998z"></path><path fill="none" stroke="#000000" stroke-linecap="round" stroke-linejoin="round" stroke-miterlimit="10" d="M54.651,54.653  h-0.004c2.789,2.783,4.51,6.635,4.514,10.887L73.79,80.169l0.003-6.377h6.374L65.538,59.159  C61.29,59.159,57.438,57.437,54.651,54.653z"></path><path fill="none" stroke="#000000" stroke-linecap="round" stroke-linejoin="round" stroke-miterlimit="10" d="M90,23.025  L73.79,73.792L90,23.025z"></path><path fill="none" stroke="#000000" stroke-linecap="round" stroke-linejoin="round" stroke-miterlimit="10" d="M68.952,75.332  l-45.925,14.67L68.952,75.332z"></path></svg>