<svg height='300px' width='300px'  fill="#000000" xmlns="http://www.w3.org/2000/svg" xmlns:xlink="http://www.w3.org/1999/xlink" version="1.1" preserveAspectRatio="none" x="0px" y="0px" viewBox="0 0 100 100"><defs><path id="a" stroke="#000000" stroke-width="1" stroke-linejoin="round" stroke-linecap="round" fill="none" d=" M 70.35 58.6 Q 73.15 58 75.45 55.3 80 49.9 77.35 39.5 78.3 32.55 76.45 27.65 72.75 17.75 58.85 27.75 L 64.35 28.55 Q 70.2 30.2 72 34.35 70.4 33.5 68.3 32.9 64.2 31.65 62 32.75 L 65.75 36.45 Q 70.4 39.95 74.85 39.1 L 75.55 40.75 Q 76.25 42.8 76.45 44.8 77.1 51.15 72.25 54.6 L 70.35 58.6 69.35 61 76 60 77.6 69.35 73.85 62.5 67.75 63.1 66.6 64.5 73.1 65.25 74.25 73.5 71.25 66.85 64.85 66.6 63.85 67.6 69.1 69.75 70.1 75.85 67.25 71.25 62.25 69.1 Q 53.9 77.25 43.3 73.75 39.95 72.65 36.85 70.5 L 34.35 68.6 30.25 71.35 28.5 76.75 28 70.5 33.25 67.5 32.6 66.85 26.1 67.35 22.75 74.1 24.5 65.35 30.85 64.75 29.35 62.85 22.6 62.6 18.5 72.35 21.5 60.6 28.5 61.1 27.55 59.65 26.6 58.25 Q 17.9 53.25 20 45.55 20.65 43.15 22.35 40.75 L 23.85 38.85 Q 29.05 20.4 37.6 25.6 41.9 28.2 45.1 34.5 39.4 29.75 33.85 32.95 31.1 34.55 29.5 37.1 32.8 35.7 36.4 36.35 38.2 36.65 39.35 37.25 35.75 40.95 30.05 41.35 L 25.1 41 Q 20.3 46.8 22.2 51.25 23.1 53.5 25 54.6 40.05 43.8 57.65 47.6 66.45 49.45 72.25 53.5 L 72.25 54.6 M 29.95 54.6 L 31.2 56.05 Q 32.55 56.9 33.1 53.75 M 25 54.6 L 27.55 59.65 M 64.65 53.35 L 64.5 55.35 Q 64.95 56.85 67.75 54.6"></path></defs><g transform="matrix( 1, 0, 0, 1, 0,0) "><use xlink:href="#a"></use></g></svg>