<svg height='300px' width='300px'  fill="#000000" xmlns="http://www.w3.org/2000/svg" xmlns:xlink="http://www.w3.org/1999/xlink" version="1.1" x="0px" y="0px" viewBox="0 0 100 100" enable-background="new 0 0 100 100" xml:space="preserve"><g><path fill="#000000" d="M65.5,52.5c0,0-2.6,0.6-4.7,0.6c-1.1,0-1.6-0.1-1.9-0.3c-0.1,0-0.2-0.1-0.3-0.1c-0.3,0-0.6,0.2-0.8,0.4   c-0.2,0.3-0.1,0.6,0,0.9c1,1.5,2.5,3.3,4.1,3.4c0,0,0.1,0,0.1,0c2.1,0,4-3.2,4.3-3.8c0.1-0.3,0.1-0.6-0.1-0.8   C66.1,52.5,65.8,52.4,65.5,52.5z M62,55.9L62,55.9c-0.5,0-1.2-0.6-2-1.4c0.2,0,0.5,0,0.8,0c1.1,0,2.4-0.1,3.3-0.3   C63.4,55.1,62.6,55.9,62,55.9z"></path><path fill="#000000" d="M77,48.9c0.5-3.6-1.5-6.9-3.3-9c-0.4-0.5-0.8-0.9-1.2-1.3c3.1-1.4,8.2-5.8,9.8-9.8c1.9-4.5,1.8-7.6,1.8-7.7   c0-0.3-0.2-0.5-0.4-0.7c-0.3-0.1-0.6-0.1-0.8,0.1c-0.7,0.6-2.8,2.9-5.2,5.6l-14.1,6C59.6,26.3,49.5,13,41,14.1   c-0.3,0-2,0.1-2.8,1.5c-0.8,1.3-0.6,3.3,0.7,5.9c-1.4-0.3-2.8-0.4-4.2-0.4C20.2,21.5,8.3,28.4,5,38.3c-0.1,0.3,0,0.7,0.3,0.9   c0.3,0.2,0.7,0.1,0.9-0.1c0.1-0.1,7.9-7.4,13.2-8.1c4-0.6,17.1-1.6,24.7,7.3c-4,1.1-12.5,9.8-19.1,17.1c-2.2,2.4-3.5,5.5-3.5,8.6   c-0.3,11.7,8.4,18.4,13.7,21.3c0.7,0.4,1.6,0.6,2.5,0.6c1.4,0,2.8-0.6,3.7-1.6l6.6-7.1c3.3,0.7,23.8,4.9,28.1,4.9   c0.1,0,0.2,0,0.3,0c0.1,0,0.2,0,0.3,0c1.4,0,3.1,0.5,5,1.4c1,0.5,2.1,0.7,3.2,0.7c0,0,0,0,0,0c1.5,0,3-0.5,4.2-1.4   c1.7-1.2,3.4-2.8,5-4.7C99.4,72.2,80.3,52.3,77,48.9z M82.5,23.1c-0.2,1.3-0.6,3.1-1.5,5.2c-1.7,4.1-7.4,8.6-9.7,9.2   c-0.3-0.3-0.6-0.5-0.9-0.7c2.3-2.6,5.4-6.3,8.2-9.4c0.2-0.1,0.3-0.2,0.4-0.4C80.3,25.4,81.6,24.1,82.5,23.1z M75.4,28.7   c-2.7,3-5.2,6-6.2,7.1c-1.5-1-2.8-1.6-3.6-1.6c-0.1,0-0.3,0-0.4,0.1c0,0-0.1,0-0.1,0c-0.2-0.2-0.4-0.6-0.6-1L75.4,28.7z M39.5,16.4   c0.5-0.8,1.6-0.8,1.6-0.8c0,0,0.1,0,0.1,0c8.5-1.1,19.7,15.2,22.4,19.2c-0.9,0.2-2.1,0.5-3.3,0.9c-1-1.2-4.1-4.8-8.6-8.1   c0-0.1,0-0.2-0.1-0.3c-3.7-7.8-8.2-9.1-9.1-9.3c-0.3-0.1-0.7,0-0.9,0.3c-0.2,0.2-0.6,0.8,0.5,4.1c-0.4-0.1-0.9-0.3-1.3-0.4   C38.9,18.5,39.1,17,39.5,16.4z M43.9,23c-0.4-1.2-0.9-2.6-1-3.4c1.2,0.5,3.8,2,6.3,6.2C47.5,24.8,45.7,23.8,43.9,23z M19.2,29.5   c-3.8,0.6-8.6,4-11.5,6.4c4.3-7.7,14.6-12.9,27-13.2C46,22.4,56.2,33.2,58.8,36.2c-1.3,0.5-2.5,1.3-3.5,2.2c-0.7,0.7-1.9,1-3.5,1   c-2.2,0-4.5-0.6-5.6-1C38.2,27.7,23.6,28.9,19.2,29.5z M93,77.2c-1.6,1.8-3.2,3.3-4.8,4.5c-1,0.7-2.1,1.1-3.4,1.1   c-0.9,0-1.7-0.2-2.5-0.6C80,81,78,80.5,76.2,80.6c-0.1,0-0.1,0-0.2,0c-4.4,0-28-4.9-28.3-4.9c-0.3-0.1-0.5,0-0.7,0.2l-6.9,7.4   c-0.7,0.7-1.7,1.2-2.7,1.2c-0.6,0-1.2-0.2-1.7-0.5c-4.9-2.8-13.2-9.1-12.9-20c0.1-2.8,1.2-5.5,3.2-7.6   c9.4-10.3,16.6-16.7,18.8-16.7c0,0,0.1,0,0.1,0c0.4,0.2,3.7,1.3,6.7,1.3c2,0,3.5-0.5,4.5-1.4c1.1-1.1,2.5-1.8,3.9-2.3c0,0,0,0,0,0   c1.4-0.5,2.9-0.8,4.1-1.1c0.5-0.1,1-0.2,1.4-0.3c1,0,4.3,1.9,7,5.1c1.7,2,3.5,5,3,8.2c0,0.2,0,0.5,0.2,0.6   C84.2,58.3,96.4,73.3,93,77.2z"></path></g></svg>