<svg height='300px' width='300px'  fill="#000000" xmlns="http://www.w3.org/2000/svg" xmlns:xlink="http://www.w3.org/1999/xlink" version="1.1" x="0px" y="0px" viewBox="0 0 595.28 595.28" enable-background="new 0 0 595.28 595.28" xml:space="preserve"><g><path d="M145.727,299.308h-2.592h-0.124l-1.358,0.493l-1.234,0.617l-1.113,0.865l-0.862,1.11l-0.62,1.237l-0.493,1.358   l-0.124,1.358l0.124,1.358l0.493,1.358l0.62,1.234l0.862,1.113l1.113,0.862l1.234,0.741l1.358,0.372h0.124h2.592l1.358-0.372   l1.234-0.741l1.113-0.862l0.865-1.113l0.741-1.234l0.369-1.358l0.124-1.358l-0.124-1.358l-0.369-1.358l-0.741-1.237l-0.865-1.11   l-1.113-0.865l-1.234-0.617L145.727,299.308z M146.592,305.974l-0.124,0.617l-0.369,0.62l-0.372,0.617l-0.617,0.369l-0.617,0.372   l-0.617,0.245h-0.741h-0.741l-0.617-0.245l-0.617-0.372l-0.496-0.369l-0.493-0.617l-0.369-0.62l-0.124-0.617l-0.124-0.741   l0.124-0.617l0.124-0.741l0.369-0.617l0.493-0.493l0.496-0.493l0.617-0.248l0.617-0.248h0.741h0.741l0.617,0.248l0.617,0.248   l0.617,0.493l0.372,0.493l0.369,0.617l0.124,0.741l0.124,0.617L146.592,305.974z"></path><path d="M164.99,195.717l7.038-5.804l7.283-5.556l7.41-5.308l7.655-4.939l7.776-4.694l8.027-4.319l1.482-0.741l6.666-3.336   l8.396-3.702l8.396-3.457l8.644-3.088l8.644-2.716l8.765-2.468l8.889-2.099l9.016-1.73h-1.361l-1.358-0.248l-1.358-0.369   l-1.234-0.617l-1.11-0.741l-0.989-0.989l-0.865-0.986l-0.741-1.237l-3.578-0.741l-3.46-0.986l-3.333-1.358l-3.085-1.606   l-3.088-1.975l-2.84-2.223l-2.592-2.468l-2.347-2.716l-3.581,0.493l-3.457,0.369l-3.581,0.124h-3.581l-3.457-0.124l-3.578-0.369   l-3.581-0.493l-3.457-0.62l-3.457-0.862l-2.347-0.865l-0.989-0.248l-3.333-1.11l-3.333-1.358l-3.212-1.482l-3.208-1.606   l-3.088-1.851l-2.961-1.854l-4.198,5.187l-3.953,5.432l-3.702,5.556l-3.581,5.556l-3.336,5.804l-3.085,5.928l-2.84,6.049   l-2.716,6.173l-2.347,6.297l-2.223,6.297l-1.975,6.421l-1.606,6.421l-1.479,6.542l-1.113,6.545l-0.986,6.669l-0.741,6.666   l6.542-6.297L164.99,195.717z M158.073,191.643l1.113-5.435l1.358-5.432l1.358-5.432l1.73-5.308l1.727-5.311l1.975-5.184   l2.223-5.187l2.223-5.063l2.468-5.063l2.716-4.936l2.719-4.818l2.961-4.691l3.088-4.691l3.333-4.57l3.333-4.319l2.964,1.603   l2.964,1.606l3.088,1.482l3.085,1.234l3.088,1.234l3.209,0.989l0.865,0.248l2.347,0.738l3.333,0.741l3.209,0.62l3.333,0.493   l3.336,0.245l3.457,0.248h3.333l3.333-0.124l3.333-0.245l3.336-0.372l2.344,2.347l2.347,2.223l2.716,1.975l2.716,1.727l2.84,1.606   l2.964,1.358l3.085,1.113l3.212,0.738l-7.531,1.854l-7.534,2.099l-7.407,2.344l-7.286,2.595l-7.283,2.84l-7.162,2.961l-7.038,3.336   l-3.333,1.603l-3.705,1.854l-6.79,3.702l-6.669,3.953l-6.666,4.198l-6.421,4.322l-6.297,4.567l-6.173,4.815l-5.928,4.939   l-5.801,5.187L158.073,191.643z"></path><path d="M276.111,137.07c0.491,0.327,0.988,0.617,1.482,0.862c0.573,0.248,1.152,0.414,1.727,0.496   c0.575,0.082,1.197,0.124,1.854,0.124c0.163,0,0.329,0,0.493,0c0.164,0.081,0.329,0.121,0.493,0.121   c0.164,0.084,0.33,0.166,0.493,0.248c0.166,0,0.33,0.082,0.496,0.248c9.208-0.905,18.448-1.153,27.656-0.741   c9.208,0.327,18.408,1.318,27.535,2.964c9.042,1.643,17.996,3.87,26.794,6.666c8.712,2.796,17.295,6.219,25.681,10.247   c2.384,1.153,4.817,2.141,7.283,2.964c2.551,0.905,5.149,1.606,7.779,2.099c2.551,0.575,5.147,0.947,7.779,1.113   c2.714,0.245,5.395,0.287,8.027,0.121l-0.248-4.074c-2.466,0.082-4.983,0.042-7.531-0.124c-2.469-0.245-4.901-0.617-7.286-1.11   c-2.466-0.493-4.859-1.152-7.162-1.975c-2.384-0.741-4.693-1.648-6.914-2.716c-9.042-4.358-18.45-8.071-28.148-11.112   c-9.62-3.044-19.439-5.353-29.386-6.917c-9.95-1.561-20.016-2.386-30.126-2.468c-10.114-0.164-20.18,0.413-30.127,1.727   C275.163,136.327,275.618,136.74,276.111,137.07z"></path><path d="M77.942,299.553c1.811,0.248,3.623,0.454,5.432,0.62c1.811,0.081,3.623,0.205,5.433,0.369   c1.811,0.082,3.622,0.124,5.434,0.124l0.863-4.074c-1.81-0.084-3.663-0.166-5.557-0.248c-1.809-0.082-3.62-0.206-5.432-0.369   c-1.893-0.166-3.745-0.33-5.556-0.496c-1.811-0.245-3.621-0.493-5.432-0.741c2.139-0.741,4.28-1.521,6.421-2.344   c2.138-0.823,4.28-1.73,6.42-2.716c2.14-0.907,4.239-1.854,6.297-2.84c2.058-0.989,4.075-2.017,6.05-3.088l1.727-5.68   c-2.22,1.234-4.485,2.429-6.79,3.581c-2.305,1.234-4.651,2.387-7.038,3.457c-2.386,1.071-4.775,2.059-7.162,2.964   c-2.386,0.986-4.815,1.893-7.283,2.716l-16.175,5.556l16.916,2.471C74.319,299.142,76.131,299.39,77.942,299.553z"></path><path d="M545.398,128.674c-13.621,6.646-27.952,11.699-42.721,15.062c-14.769,3.283-29.846,4.897-44.944,4.815   c-15.177-0.163-30.257-2.027-44.943-5.556c-14.686-3.609-28.934-8.912-42.473-15.803l-8.889-4.446l3.085,9.509   c0.166,0.657,0.414,1.358,0.741,2.099c0.248,0.657,0.496,1.316,0.741,1.975c0.33,0.657,0.659,1.316,0.989,1.975   c0.329,0.659,0.659,1.316,0.986,1.975l6.421,2.099c-0.657-0.823-1.276-1.687-1.851-2.592c-0.575-0.905-1.112-1.854-1.606-2.84   c-0.493-0.987-0.946-1.977-1.358-2.964c-0.411-0.986-0.781-1.975-1.11-2.964c13.784,6.975,28.32,12.319,43.337,15.93   c15.014,3.691,30.383,5.638,45.805,5.801c15.508,0.082,30.916-1.574,45.933-4.939c15.096-3.443,29.759-8.581,43.707-15.31   c-8.038,8.776-17.075,16.611-26.915,23.336c-9.924,6.642-20.581,12.115-31.732,16.299c-11.152,4.181-22.763,7.042-34.573,8.517   c-11.807,1.478-23.75,1.518-35.559,0.124c-19.996-2.293-40.253-2.044-60.253,0.741c-19.915,2.788-39.425,8.1-58.031,15.806   c-18.603,7.785-36.163,17.912-52.226,30.126c-15.981,12.212-30.387,26.407-42.845,42.225c5.592,4.03,11.366,7.659,17.288,10.867   c6.002,3.289,12.186,6.175,18.519,8.641c6.333,2.551,12.806,4.694,19.384,6.421c6.581,1.728,13.26,3.048,20.004,3.95   c-7.236,2.633-14.703,4.736-22.348,6.297c-7.565,1.564-15.239,2.553-22.965,2.964c-7.729,0.412-15.487,0.288-23.213-0.369   c-7.729-0.659-15.403-1.896-22.965-3.705c0.245-0.329,0.533-0.699,0.862-1.11c0.248-0.33,0.496-0.659,0.741-0.989   c0.248-0.411,0.496-0.781,0.741-1.11c0.33-0.412,0.617-0.783,0.865-1.113h-5.187c-5,6.803-10.852,12.863-17.409,18.026   c-6.639,5.246-13.902,9.605-21.607,12.966c-7.703,3.361-15.838,5.684-24.199,6.914c-8.279,1.148-16.706,1.23-25.064,0.248   c0.164-11.748,1.363-23.441,3.579-34.941c2.219-11.502,5.441-22.822,9.632-33.832c4.108-10.927,9.19-21.502,15.187-31.608   c5.997-10.104,12.856-19.648,20.497-28.521l0.121-1.851l0.496-5.311c-8.542,9.527-16.231,19.781-22.965,30.62   c-6.653,10.841-12.317,22.293-16.916,34.204c-4.599,11.907-8.073,24.229-10.371,36.792c-2.301,12.564-3.458,25.298-3.458,38.03   c8.359,1.391,16.91,1.641,25.434,0.741c8.442-0.821,16.744-2.731,24.695-5.68c8.033-2.952,15.629-6.896,22.596-11.732   c6.966-4.916,13.275-10.686,18.767-17.161c7.892,1.973,15.937,3.375,24.075,4.198c8.059,0.739,16.185,0.905,24.326,0.493   c8.056-0.411,16.101-1.442,24.075-3.085c7.975-1.564,15.814-3.749,23.461-6.545l16.051-5.68l-16.916-2.347   c-6.25-0.82-12.434-2.017-18.521-3.578c-6.085-1.482-12.063-3.378-17.902-5.68c-5.84-2.221-11.57-4.778-17.164-7.655   c-5.591-2.88-10.992-6.096-16.172-9.633c12.3-15.087,26.396-28.523,41.979-40.001c15.663-11.564,32.663-21.102,50.621-28.4   c18.042-7.298,36.909-12.314,56.18-14.938c19.271-2.627,38.759-2.792,58.03-0.496c12.137,1.394,24.411,1.354,36.547-0.124   c12.218-1.557,24.159-4.5,35.559-8.765c11.482-4.347,22.427-9.984,32.594-16.792c10.088-6.889,19.376-14.975,27.659-24.078   l14.568-15.927L545.398,128.674z"></path><path d="M449.831,295.975h2.595h0.124l1.358-0.496l1.234-0.617l1.11-0.865l0.865-1.11l0.617-1.234l0.493-1.358l0.124-1.358   l-0.124-1.357l-0.493-1.358l-0.617-1.237l-0.865-1.11l-1.11-0.865l-1.234-0.741l-1.358-0.369h-0.124h-2.595l-1.358,0.369   l-1.234,0.741l-1.11,0.865l-0.865,1.11l-0.741,1.237l-0.369,1.358l-0.124,1.357l0.124,1.358l0.369,1.358l0.741,1.234l0.865,1.11   l1.11,0.865l1.234,0.617L449.831,295.975z M448.969,289.306l0.124-0.617l0.369-0.617l0.369-0.617l0.62-0.372l0.617-0.369   l0.617-0.248h0.741h0.741l0.617,0.248l0.617,0.369l0.493,0.372l0.496,0.617l0.369,0.617l0.124,0.617l0.124,0.741l-0.124,0.617   l-0.124,0.741l-0.369,0.617l-0.496,0.496l-0.493,0.493l-0.617,0.245l-0.617,0.248h-0.741h-0.741l-0.617-0.248l-0.617-0.245   l-0.62-0.493l-0.369-0.496l-0.369-0.617l-0.124-0.741l-0.124-0.617L448.969,289.306z"></path><path d="M430.571,399.566l-7.038,5.801l-7.286,5.556l-7.407,5.311l-7.655,4.939l-7.779,4.691l-8.024,4.322l-1.606,0.741   l-6.545,3.333l-8.396,3.705l-8.396,3.457l-8.641,3.085l-8.644,2.716l-8.768,2.471l-8.889,2.099l-9.013,1.727h1.358l1.358,0.248   l1.358,0.372l1.234,0.617l1.113,0.741l0.986,0.986l0.865,0.989l0.741,1.234l3.581,0.741l3.457,0.989l3.333,1.358l3.088,1.603   l3.088,1.975l2.837,2.223l2.595,2.471l2.344,2.716l3.581-0.493l3.457-0.372l3.581-0.124h3.581l3.457,0.124l3.581,0.372l3.581,0.493   l3.457,0.617l3.457,0.865l2.223,0.741l1.11,0.369l3.336,1.113l3.333,1.358l3.209,1.482l3.212,1.603l3.084,1.854l2.964,1.851   l4.198-5.187l3.95-5.432l3.705-5.556l3.581-5.556l3.333-5.804l3.088-5.925l2.84-6.052l2.716-6.173l2.344-6.297l2.223-6.297   l1.975-6.421l1.606-6.418l1.482-6.545l1.11-6.545l0.989-6.666l0.741-6.669l-6.545,6.297L430.571,399.566z M437.485,403.64   l-1.11,5.432l-1.358,5.432l-1.358,5.432l-1.73,5.311l-1.727,5.308l-1.979,5.187l-2.22,5.184l-2.223,5.063l-2.471,5.063   l-2.716,4.939l-2.716,4.815l-2.964,4.691l-3.085,4.694l-3.336,4.567l-3.333,4.322l-2.964-1.606l-2.961-1.606l-3.088-1.479   l-3.088-1.237l-3.085-1.234l-3.212-0.986l-0.986-0.372l-2.223-0.617l-3.333-0.741l-3.212-0.617l-3.333-0.493l-3.333-0.248   l-3.457-0.248h-3.333l-3.336,0.124l-3.333,0.248l-3.333,0.369l-2.347-2.344l-2.344-2.223l-2.716-1.975l-2.719-1.73l-2.84-1.606   l-2.961-1.358l-3.088-1.11l-3.209-0.741l7.531-1.851l7.531-2.099l7.41-2.347l7.283-2.592l7.286-2.84l7.162-2.964l7.035-3.333   l3.212-1.606l3.826-1.851l6.793-3.705l6.666-3.95l6.669-4.198l6.417-4.322l6.297-4.57l6.176-4.815l5.925-4.939l5.804-5.184   L437.485,403.64z"></path><path d="M319.449,458.213c-0.493-0.33-0.989-0.619-1.482-0.865c-0.575-0.246-1.154-0.411-1.73-0.493   c-0.573-0.082-1.194-0.124-1.851-0.124c-0.164,0-0.329,0-0.493,0c-0.166-0.082-0.33-0.124-0.496-0.124   c-0.163-0.082-0.329-0.164-0.493-0.248c-0.164,0-0.329-0.082-0.493-0.245c-9.208,0.904-18.45,1.15-27.659,0.741   c-9.206-0.33-18.408-1.321-27.532-2.964c-9.045-1.644-17.997-3.873-26.794-6.669c-8.714-2.793-17.295-6.219-25.681-10.247   c-2.385-1.15-4.817-2.141-7.286-2.964c-2.548-0.904-5.147-1.605-7.779-2.099c-2.548-0.575-5.146-0.946-7.779-1.11   c-2.712-0.248-5.392-0.288-8.024-0.124l0.248,4.074c2.466-0.082,4.98-0.04,7.531,0.124c2.466,0.248,4.899,0.617,7.283,1.11   c2.469,0.496,4.859,1.155,7.162,1.978c2.385,0.739,4.693,1.645,6.914,2.716c9.045,4.357,18.45,8.07,28.152,11.112   c9.62,3.041,19.439,5.352,29.386,6.914c9.947,1.562,20.014,2.387,30.126,2.468c10.113,0.166,20.179-0.411,30.127-1.727   C320.395,458.955,319.94,458.541,319.449,458.213z"></path><path d="M517.618,295.727c-1.812-0.248-3.623-0.453-5.435-0.617c-1.809-0.082-3.62-0.206-5.432-0.372   c-1.811-0.082-3.621-0.121-5.432-0.121l-0.865,4.074c1.812,0.082,3.663,0.163,5.556,0.245c1.812,0.084,3.623,0.206,5.432,0.372   c1.894,0.164,3.747,0.329,5.556,0.493c1.812,0.248,3.623,0.493,5.435,0.741c-2.141,0.741-4.282,1.524-6.421,2.347   c-2.141,0.823-4.28,1.727-6.421,2.716c-2.139,0.905-4.24,1.851-6.297,2.84c-2.057,0.986-4.074,2.017-6.049,3.085l-1.73,5.68   c2.223-1.234,4.488-2.428,6.79-3.581c2.305-1.234,4.652-2.386,7.038-3.457c2.387-1.068,4.776-2.057,7.162-2.96   c2.387-0.989,4.815-1.895,7.286-2.719l16.175-5.556l-16.916-2.468C521.238,296.138,519.427,295.891,517.618,295.727z"></path><path d="M333.153,303.506c6.085,1.479,12.065,3.377,17.905,5.68c5.837,2.221,11.569,4.775,17.161,7.655   c5.592,2.877,10.995,6.093,16.175,9.63c-12.3,15.089-26.399,28.522-41.979,40.004c-15.663,11.563-32.665,21.098-50.624,28.396   c-18.04,7.298-36.906,12.317-56.176,14.941c-19.273,2.624-38.76,2.79-58.03,0.493c-12.139-1.394-24.412-1.352-36.547,0.124   c-12.219,1.558-24.161,4.502-35.56,8.765c-11.481,4.348-22.426,9.988-32.597,16.792c-10.086,6.889-19.374,14.975-27.656,24.078   l-14.569,15.927l19.508-9.382c13.62-6.647,27.952-11.7,42.719-15.065c14.769-3.28,29.846-4.897,44.941-4.815   c15.181,0.164,30.257,2.027,44.944,5.556c14.687,3.611,28.937,8.913,42.473,15.806l8.892,4.443l-3.088-9.506   c-0.164-0.659-0.411-1.358-0.741-2.099c-0.245-0.659-0.493-1.318-0.741-1.975c-0.329-0.659-0.657-1.318-0.986-1.978   c-0.33-0.657-0.659-1.316-0.989-1.975l-6.421-2.099c0.659,0.823,1.276,1.688,1.854,2.595c0.575,0.904,1.11,1.851,1.603,2.84   c0.496,0.986,0.947,1.975,1.358,2.961c0.412,0.989,0.783,1.977,1.113,2.964c-13.784-6.975-28.324-12.317-43.337-15.927   c-15.017-3.692-30.383-5.64-45.809-5.804c-15.507-0.082-30.916,1.574-45.929,4.939c-15.098,3.447-29.76,8.583-43.709,15.31   c8.036-8.773,17.077-16.612,26.917-23.334c9.922-6.644,20.579-12.118,31.731-16.299c11.153-4.184,22.762-7.044,34.571-8.52   c11.809-1.476,23.75-1.518,35.559-0.124c20,2.295,40.257,2.047,60.253-0.741c19.918-2.785,39.428-8.1,58.03-15.803   c18.606-7.787,36.164-17.916,52.229-30.127c15.981-12.211,30.384-26.409,42.842-42.228c-5.592-4.03-11.364-7.657-17.285-10.864   c-6.002-3.289-12.188-6.178-18.519-8.644c-6.333-2.548-12.806-4.693-19.387-6.421c-6.578-1.725-13.257-3.045-20.001-3.95   c7.235-2.63,14.701-4.735,22.348-6.297c7.563-1.562,15.236-2.552,22.965-2.964c7.729-0.411,15.484-0.287,23.213,0.372   c7.729,0.657,15.402,1.895,22.965,3.702c-0.248,0.33-0.535,0.701-0.865,1.113c-0.245,0.329-0.493,0.657-0.741,0.986   c-0.245,0.412-0.493,0.783-0.741,1.113c-0.327,0.411-0.617,0.781-0.862,1.11h5.184c5-6.802,10.854-12.863,17.409-18.026   c6.639-5.246,13.904-9.605,21.606-12.966c7.707-3.357,15.842-5.684,24.202-6.914c8.278-1.146,16.704-1.23,25.063-0.245   c-0.164,11.748-1.362,23.439-3.581,34.942c-2.219,11.5-5.44,22.822-9.63,33.829c-4.107,10.927-9.189,21.504-15.186,31.608   c-6,10.106-12.856,19.649-20.497,28.521l-0.124,1.854l-0.493,5.308c8.541-9.525,16.231-19.778,22.965-30.619   c6.651-10.842,12.317-22.294,16.916-34.201s8.07-24.228,10.371-36.795c2.301-12.564,3.457-25.298,3.457-38.027   c-8.36-1.394-16.912-1.644-25.436-0.741c-8.44,0.819-16.743,2.728-24.691,5.68c-8.033,2.948-15.63,6.892-22.596,11.729   c-6.966,4.917-13.276,10.688-18.767,17.161c-7.893-1.973-15.938-3.375-24.078-4.198c-8.056-0.738-16.183-0.904-24.323-0.493   c-8.056,0.412-16.101,1.442-24.078,3.088c-7.974,1.561-15.811,3.749-23.458,6.542l-15.927,5.804l16.792,2.223   C320.883,300.748,327.068,301.942,333.153,303.506z"></path></g></svg>