<svg height='300px' width='300px'  fill="#000000" xmlns="http://www.w3.org/2000/svg" data-name="Layer 1" viewBox="0 0 100 100" x="0px" y="0px"><title>icons_animals_1</title><path d="M31.81,80.15l-.61.42c-2.83,1.94-15,13.59-15.48,14.08L17.1,96.1c.12-.11,11.12-10.67,14.66-13.45C40.43,88.82,62,89.43,69.08,83.8c4,3.5,10.5,4.84,15.41,5.33a7.08,7.08,0,0,0,6.72-3.36l8-13.26a4.16,4.16,0,0,0-.61-5.09L78.22,46.88c.39-1.92,1.4-8.23-1.56-11.68l-.2-.18-2.54-1.7c-3.87-2.58-9.17-6.11-9.13-7.22,0,0,.14-.21.85-.41,16.29-2.25,24.85-8.84,27-20.72l.58-3.25L90.89,4.1C86.63,8.55,68.71,13,57,13.57c-8.43.39-12,5.59-13.31,8.69A30.78,30.78,0,0,0,27.92,8.74l-.83-.31-.4.79a22,22,0,0,0-1.78,16.9c-1.68,0-5.24,0-8.48-.06l0,2c3.34.06,5.57.09,7.08.09,1,0,1.66,0,2.13,0a29.74,29.74,0,0,0,8.12,11.19l1.23-1.58c-.14-.11-14.14-11.29-6.88-26.77A29.55,29.55,0,0,1,43,25.17,33.39,33.39,0,0,1,46,33.08l2-.38A34.64,34.64,0,0,0,45,24.59c.39-1.55,2.7-8.59,12.13-9S82.82,11.75,90,7.3c-2.73,9.25-10.66,14.49-24.7,16.42l-.13,0c-1.41.39-2.19,1.07-2.34,2-.35,2.22,3,4.56,10,9.22l2.41,1.61c2.65,3.27.95,10.28.93,10.35L76,47.5,97.19,68.83a2.16,2.16,0,0,1,.32,2.64l-8,13.26a5,5,0,0,1-4.8,2.41c-4-.4-11.23-1.64-14.87-5.4L69.1,81l-.72.74c-5.67,5.84-28.22,5.13-36-1.13Z"></path><path d="M63.56,47.3l-.84-1.82c-.05,0-5.13,2.28-9.9-2.89L51.34,44a11.38,11.38,0,0,0,8.52,4A9.74,9.74,0,0,0,63.56,47.3Z"></path><path d="M40.84,33.59l2-.17A21.39,21.39,0,0,0,31.25,16.34l-1-.46-.37,1c0,.1-3.61,10.62,6.54,19.46l1.31-1.51c-7.28-6.35-6.81-13.38-6.26-16.12A19.56,19.56,0,0,1,40.84,33.59Z"></path></svg>