<svg height='300px' width='300px'  fill="#000000" xmlns="http://www.w3.org/2000/svg" data-name="Layer 1" viewBox="0 0 512 512" x="0px" y="0px"><title>N_P_099Artboard 1 copy 4</title><path d="M224.9,247.36a4,4,0,0,0-5.89,5.45c.62.67,15.46,16.5,36.76,17h1.09c12.91,0,25.23-5.68,36.65-16.89a4,4,0,0,0-5.63-5.73C277.78,257.15,267.1,262,256,261.81,238.16,261.4,225,247.5,224.9,247.36Z"></path><path d="M168.8,407.27a4,4,0,0,0-4,4v26.09a4,4,0,1,0,8,0V411.28A4,4,0,0,0,168.8,407.27Z"></path><path d="M343.2,407.27a4,4,0,0,0-4,4v26.09a4,4,0,1,0,8,0V411.28A4,4,0,0,0,343.2,407.27Z"></path><path d="M368.17,355.8c-1.5-9.88-8.3-57.55-5.36-89.6.44-4.77,1.9-12,3.59-20.37,7.51-37.18,20.08-99.39-12.61-139.34-19.47-23.8-52.49-35.88-98.12-35.88S177,82.68,157.55,106.49c-32.68,40-20.11,102.16-12.6,139.34,1.69,8.37,3.15,15.6,3.59,20.37,3,33.15-4.35,83-5.5,90.49-30.26,33.83-25.47,80.45-25.39,81.14a4,4,0,0,0,4,3.56l.46,0a4,4,0,0,0,3.53-4.44c-.29-2.59-4.53-44.78,23.46-75.32a3.94,3.94,0,0,0,1.27-1.36c9.47-9.87,22.45-18.4,40.18-23.82.91,9.32,4.57,28.62,19.22,37.87a33.62,33.62,0,0,0,18.3,5c7.23,0,15.34-1.83,24.26-5.48v63.57a4,4,0,1,0,8,0V373.8c8.92,3.65,17,5.48,24.26,5.48a33.62,33.62,0,0,0,18.3-5c14.55-9.19,18.26-28.29,19.2-37.68,16.77,5.23,29.24,13.27,38.5,22.56a4,4,0,0,0,2.8,3c27.46,30.5,23.27,72.22,23,74.79a4,4,0,0,0,3.53,4.44,3.55,3.55,0,0,0,.46,0,4,4,0,0,0,4-3.56C394.43,437.14,399.31,389.7,368.17,355.8Zm-47.66-28a3.94,3.94,0,0,0-2.1-.61h-.1a149.17,149.17,0,0,0-19.21-3.62,26.68,26.68,0,0,1-4.91-1.09,3.91,3.91,0,0,0-2.34-.87,25.45,25.45,0,0,1-14.48-16.19c23.09-7.83,42.3-28.23,53-55.2H340.5A23.42,23.42,0,0,0,359.19,241c-.22,1.12-.44,2.21-.66,3.29-1.81,8.95-3.24,16-3.71,21.22-2.47,26.81,1.5,63,4,81.52C349,339,336.42,332.21,320.51,327.8Zm-168,19.79c2.47-18.33,6.56-55,4.07-82.13-.47-5.2-1.9-12.27-3.71-21.22q-.58-2.88-1.2-6a23.62,23.62,0,0,0,20.53,12h10.11c10.63,26.74,29.61,47,52.43,55l0,.13a25.73,25.73,0,0,1-21.75,18.23C185.86,326.92,166.43,336,152.46,347.59Zm186.81-137h1.23a15.8,15.8,0,0,1,0,31.59h-7.24A133.84,133.84,0,0,0,339.27,210.61Zm-8.62-25.41a132.81,132.81,0,0,1,.94,15.61,127.56,127.56,0,0,1-7.25,42.83,4,4,0,0,0-1,2.57h0c-10.11,26.31-28.71,45.9-51,52.38a3.58,3.58,0,0,0-1.16.14,3.73,3.73,0,0,0-.95.43,57.12,57.12,0,0,1-29.48-.4l-.06,0-.08,0c-22.45-6.33-41.23-26-51.41-52.5h0a4,4,0,0,0-1-2.57,127.56,127.56,0,0,1-7.24-42.83,132.63,132.63,0,0,1,.85-15.07c14.09-.87,67-6.08,98.27-35.51C287.67,158.51,308.5,179.66,330.65,185.2Zm-151.26,57h-7.24a15.8,15.8,0,0,1,0-31.59h1.23A134.35,134.35,0,0,0,179.39,242.2Zm63,65.4,0-.18a64.8,64.8,0,0,0,27.21.13l0,.05a33.38,33.38,0,0,0,15.48,19.6l-28.79,34.2-29-34.45A33.4,33.4,0,0,0,242.36,307.6Zm-78.59-196c17.88-21.85,48.8-32.93,91.9-32.93s74,11.08,91.91,32.93c24.07,29.42,21.36,73.3,15.6,108a23.66,23.66,0,0,0-22.68-17h-.91c0-.59,0-1.18,0-1.77a141.62,141.62,0,0,0-1.34-19.47.5.5,0,0,1,0-.13c0-.15-.07-.3-.11-.45s-.07-.22-.11-.32-.12-.26-.18-.39a3.14,3.14,0,0,0-.18-.31,2.52,2.52,0,0,0-.24-.33,3.11,3.11,0,0,0-.23-.28l-.3-.27-.29-.24-.31-.19c-.13-.07-.25-.14-.39-.2l-.28-.1a4,4,0,0,0-.49-.15l-.11,0c-25.32-4.69-51.26-35.82-51.51-36.14a4,4,0,0,0-2.95-1.45,3.94,3.94,0,0,0-3.05,1.23c-32.56,34-98.6,36.28-99.27,36.3a4,4,0,0,0-3.86,3.45A141.62,141.62,0,0,0,173,200.81c0,.59,0,1.18,0,1.77h-.91a23.66,23.66,0,0,0-23.38,20.55C142.63,187.89,138.88,142,163.77,111.57Zm50.29,255.94c-12.37-7.78-15.06-25.94-15.64-33.21a142.12,142.12,0,0,1,15.46-2.75,35.54,35.54,0,0,0,5.78-1.24l30.16,35.83C234.68,372.45,222.66,372.93,214.06,367.51Zm84.53,0c-8.6,5.42-20.63,4.94-35.76-1.37l30-35.67a34,34,0,0,0,5.27,1.08,142.1,142.1,0,0,1,16.1,2.9C313.61,341.82,310.87,359.78,298.59,367.51Z"></path></svg>